<svg width="1470" height="315" viewBox="0 0 1470 315" fill="none" xmlns="http://www.w3.org/2000/svg">
<path fill-rule="evenodd" clip-rule="evenodd" d="M247.716 451.404C301.994 393.681 362.725 336.966 425.915 284.994C420.23 301.73 411.825 318.275 401.084 334.619C366.334 387.489 309.607 433.165 255.377 462.115C244.832 467.744 234.732 472.551 225.276 476.556C231.619 468.996 239.047 460.622 247.716 451.404ZM162.551 371.027C235.27 293.693 319.757 217.135 407.803 149.887C401.484 140.523 395.403 134.419 390.107 130.448C381.728 124.165 372.611 121.129 361.033 121.013C334.333 120.743 294.665 136.238 244.037 173.132C145.085 245.244 39.2344 372.957 -28.307 470.68L-124.5 403.95C-54.1676 302.189 60.5497 161.9 175.211 78.34C231.391 37.3987 296.791 3.13822 362.215 3.80014C396.697 4.14895 430.406 14.251 460.216 36.6038C476.608 48.8953 490.819 64.1282 503.077 81.8199C564.295 41.1314 625.808 6.21859 684.99 -20.1917C772.54 -59.2611 862.259 -83.0398 941.19 -72.4976C981.73 -67.0828 1020.22 -52.4697 1053 -25.6387C1085.76 1.18718 1109.68 37.6698 1125.09 81.9252C1140.4 125.885 1161.78 143.112 1181.83 150.585C1204.76 159.126 1237.02 158.969 1278.73 146.952C1362.6 122.791 1456.88 58.7581 1518.63 4.84365L1595.5 93.2139C1528.06 152.092 1418.59 228.63 1311.07 259.605C1257.09 275.157 1196.77 281.21 1141.05 260.452C1082.47 238.624 1039.17 191.042 1014.62 120.53C1005.12 93.2414 992.388 76.1229 978.96 65.1263C965.532 54.1362 948.284 46.7057 925.724 43.6928C878.457 37.3795 812.553 51.2039 732.597 86.885C673.579 113.222 610.841 149.675 548.034 192.828C560.809 269.409 537.221 340.633 498.804 399.083C450.615 472.403 377 530.009 310.399 565.563C276.9 583.446 242.878 596.995 212.161 603.88C196.826 607.317 180.699 609.461 164.96 608.915C149.815 608.39 130.457 605.214 112.728 593.793C92.794 580.951 79.6897 560.632 76.288 536.651C73.258 515.291 78.4404 495.242 85.0287 479.119C98.1094 447.107 124.886 411.085 162.551 371.027ZM167.716 491.662C167.721 491.658 167.838 491.669 168.06 491.71C167.822 491.687 167.712 491.666 167.716 491.662ZM192.182 526.789C192.19 526.757 192.199 526.714 192.208 526.661C192.191 526.731 192.179 526.783 192.171 526.816C192.165 526.846 192.163 526.862 192.164 526.861C192.166 526.861 192.172 526.836 192.182 526.789Z" fill="#3B82F6"/>
</svg>
