<svg width="132" height="132" viewBox="0 0 132 132" fill="none" xmlns="http://www.w3.org/2000/svg">
<rect width="132" height="132" rx="24" fill="#2563EB" fill-opacity="0.12"/>
<path fill-rule="evenodd" clip-rule="evenodd" d="M98.4906 28.3358C105.713 29.5997 111.53 34.2905 114.488 41.2659C117.15 47.5366 116.238 55.5814 112.22 61.1958C110.864 63.0916 75.4931 98.3334 73.3486 99.9132C71.4999 101.299 68.9857 102.538 66.5455 103.316C65.1898 103.753 64.0806 103.899 61.246 103.972C57.2528 104.094 55.6506 103.851 52.4463 102.587C48.5764 101.056 47.9355 100.497 34.0335 86.7158C26.8853 79.6188 20.5258 73.1294 19.9343 72.3031C13.846 63.8936 14.9305 52.2031 22.4485 44.9116C25.1106 42.3596 28.1424 40.634 31.7904 39.5889C33.4666 39.1028 34.3046 39.0299 37.4597 39.0542C40.7627 39.0542 41.4035 39.1271 43.3755 39.7347C46.0129 40.5125 48.5517 41.8006 50.4004 43.2589C51.1399 43.8422 53.728 46.2727 56.119 48.6789L60.4818 53.0537L70.0457 43.502C75.2959 38.2764 80.4229 33.3183 81.4335 32.5405C86.2154 28.7733 92.3283 27.2664 98.4906 28.3358ZM91.1945 34.1446C89.1733 34.6551 87.5464 35.3599 85.9935 36.405C83.9723 37.7904 52.0765 69.3622 51.4357 70.6503C50.3511 72.7649 50.3265 75.7543 51.3864 77.7959C52.0272 79.0598 53.7527 80.6639 55.0837 81.2715C55.9218 81.6604 56.7105 81.7819 58.2881 81.8062C60.9748 81.8062 62.1333 81.2715 64.7215 78.841C67.285 76.4106 68.7886 75.7543 71.3274 75.9002C75.5424 76.1432 78.451 79.0112 78.6974 83.1673C78.796 84.7957 78.7221 85.2089 78.1552 86.4484C77.5636 87.8095 78.2538 87.1533 91.8353 73.6641C99.723 65.838 106.551 59.0084 106.994 58.4494C108.005 57.2585 109.385 54.3419 109.829 52.519C110.273 50.6719 110.224 47.3664 109.731 45.4706C108.966 42.6027 107.709 40.4396 105.491 38.2765C103.272 36.089 101.079 34.8495 98.2194 34.1932C96.2968 33.7315 92.8953 33.7315 91.1945 34.1446Z" fill="#2563EB"/>
</svg>
